<svg width="172.000000" height="38.000000" viewBox="0 0 172 38" fill="none" xmlns="http://www.w3.org/2000/svg" xmlns:xlink="http://www.w3.org/1999/xlink">
	<desc>
			Created with Pixso.
	</desc>
	<defs/>
	<path id="Форма 12" d="M0 0L6.19 0L13.68 10.23L13.68 0.05L26.21 0.05C28.97 0.05 31.47 0.55 33.7 1.56C35.93 2.57 37.74 3.91 39.12 5.57C40.5 7.24 41.56 9.11 42.29 11.2C43.02 13.28 43.39 15.45 43.39 17.71C43.39 19.96 43.02 22.12 42.29 24.19C41.56 26.26 40.5 28.14 39.12 29.82C37.74 31.5 35.93 32.84 33.7 33.83C31.47 34.82 28.97 35.32 26.21 35.32L13.68 35.32L13.68 24.36L6.19 35.32L0 35.32L12.63 17.35L0 0ZM87.24 23.33L85.06 17.52L75.83 17.52L73.62 23.33L70.08 23.33L79.21 0.05L81.62 0.05L90.75 23.33L87.24 23.33ZM168.49 23.33L166.31 17.52L157.08 17.52L154.87 23.33L151.33 23.33L160.46 0.05L162.86 0.05L172 23.33L168.49 23.33ZM48.47 0.34L52.5 0.34L58.67 8.78L64.88 0.34L68.88 0.34L60.66 11.64L68.88 23.33L64.88 23.33L58.67 14.3L52.5 23.33L48.47 23.33L56.69 11.64L48.47 0.34ZM93.09 0.34L96.34 0.34L96.34 23.33L93.09 23.33L93.09 0.34ZM96.96 12.69L96.96 11.02L104.89 0.34L108.95 0.34L100.27 11.77L109.86 23.33L105.63 23.33L96.96 12.69ZM137.03 13.25L137.03 11.67L140.86 11.67C142.16 11.67 143.17 11.28 143.9 10.49C144.63 9.7 144.99 8.76 144.99 7.67C144.99 6.59 144.63 5.66 143.9 4.87C143.17 4.09 142.16 3.69 140.86 3.69L135.82 3.69L135.82 23.33L132.57 23.33L132.57 0.34L140.86 0.34C143.2 0.34 145.02 1.07 146.32 2.53C147.62 3.98 148.27 5.69 148.27 7.67C148.27 9.37 147.76 10.89 146.73 12.21C145.7 13.54 144.25 14.36 142.39 14.69L149.57 23.33L145.31 23.33L137.03 13.25ZM120.42 23.56C119.03 23.56 117.72 23.3 116.47 22.79C115.23 22.27 114.17 21.46 113.3 20.34C112.44 19.23 112 17.92 112 16.43L112 0.37L115.32 0.37L115.32 16.47C115.32 17.65 115.84 18.57 116.88 19.24C117.92 19.91 119.1 20.24 120.42 20.24C121.72 20.24 122.89 19.9 123.93 19.23C124.97 18.55 125.49 17.62 125.49 16.43L125.49 0.37L128.81 0.37L128.81 16.47C128.81 17.93 128.37 19.23 127.51 20.34C126.64 21.46 125.58 22.27 124.34 22.79C123.09 23.3 121.79 23.56 120.42 23.56ZM18.72 30.22L26.21 30.22C30.04 30.22 33.03 28.99 35.17 26.51C37.32 24.04 38.39 21.11 38.39 17.71C38.39 14.31 37.32 11.37 35.17 8.88C33.03 6.39 30.04 5.14 26.21 5.14L18.72 5.14L18.72 30.22ZM80.45 5.33L77.03 14.4L83.86 14.4L80.45 5.33ZM161.69 5.33L158.28 14.4L165.11 14.4L161.69 5.33ZM139.06 35.25L139.95 35.25L139.95 25.75L139.01 25.75L139.01 29.44C138.73 28.99 138.34 28.65 137.86 28.42C137.37 28.18 136.85 28.06 136.31 28.06C135.29 28.06 134.41 28.41 133.67 29.11C132.94 29.81 132.57 30.67 132.57 31.71C132.57 32.19 132.66 32.64 132.82 33.07C132.98 33.49 133.15 33.79 133.34 33.95C133.82 34.46 134.3 34.83 134.77 35.06C135.25 35.29 135.74 35.4 136.25 35.4C137.44 35.4 138.37 34.92 139.06 33.96L139.06 35.25ZM155.69 25.75L154.74 25.75L154.74 27.37L155.69 27.37L155.69 25.75ZM143.04 33.77C142.49 33.28 142.22 32.72 142.22 32.07L148.52 32.07C148.52 31.52 148.46 31.04 148.34 30.62C148.22 30.2 148.01 29.8 147.7 29.43C147.35 28.99 146.93 28.65 146.44 28.42C145.96 28.18 145.45 28.06 144.91 28.06C143.89 28.06 143.03 28.42 142.33 29.14C141.63 29.85 141.28 30.72 141.28 31.73C141.28 32.76 141.64 33.63 142.35 34.34C143.06 35.04 143.92 35.4 144.93 35.4C145.68 35.4 146.37 35.17 147 34.72C147.63 34.26 148.07 33.67 148.31 32.96L147.33 32.96C147.13 33.43 146.8 33.8 146.33 34.07C145.86 34.35 145.37 34.49 144.84 34.49C144.18 34.49 143.58 34.25 143.04 33.77ZM150.54 34.1C150.3 33.84 150.18 33.52 150.18 33.16L149.24 33.16C149.24 33.77 149.45 34.3 149.86 34.74C150.27 35.18 150.77 35.4 151.35 35.4C152.01 35.4 152.55 35.19 152.97 34.78C153.39 34.36 153.6 33.83 153.6 33.17C153.6 32.59 153.41 32.13 153.02 31.78C152.74 31.55 152.28 31.32 151.66 31.12C151.27 30.99 150.99 30.87 150.82 30.75C150.56 30.56 150.44 30.29 150.44 29.95C150.44 29.68 150.53 29.45 150.72 29.26C150.9 29.07 151.13 28.98 151.4 28.98C151.72 28.98 151.97 29.07 152.18 29.25C152.38 29.43 152.48 29.67 152.48 29.97L153.42 29.97C153.42 29.45 153.23 29.01 152.85 28.63C152.47 28.25 152.02 28.06 151.5 28.06C150.94 28.06 150.46 28.25 150.07 28.62C149.69 28.99 149.49 29.46 149.49 30.03C149.49 30.29 149.54 30.54 149.64 30.77C149.74 31 149.87 31.2 150.03 31.35C150.2 31.51 150.41 31.64 150.65 31.75C150.77 31.8 151.01 31.88 151.38 31.99C151.75 32.1 152.04 32.24 152.25 32.41C152.52 32.63 152.66 32.94 152.66 33.32C152.66 33.66 152.54 33.94 152.31 34.16C152.08 34.38 151.79 34.49 151.44 34.49C151.08 34.49 150.78 34.36 150.54 34.1ZM164.13 35.63C164.2 35.34 164.24 34.88 164.24 34.24L164.24 28.22L163.34 28.22L163.34 29.58C163.08 29.08 162.69 28.71 162.19 28.45C161.69 28.19 161.15 28.06 160.57 28.06C160.02 28.06 159.53 28.17 159.09 28.39C158.58 28.63 158.11 29.03 157.68 29.58C157.52 29.76 157.38 30.03 157.25 30.4C157.1 30.84 157.02 31.28 157.02 31.75C157.02 32.8 157.38 33.67 158.11 34.37C158.46 34.7 158.85 34.95 159.28 35.13C159.7 35.31 160.15 35.4 160.62 35.4C161.19 35.4 161.73 35.27 162.22 35.02C162.75 34.74 163.13 34.35 163.34 33.86L163.34 34.24C163.34 34.63 163.32 34.93 163.29 35.16C163.25 35.38 163.17 35.61 163.03 35.86C162.81 36.25 162.49 36.55 162.07 36.76C161.65 36.98 161.22 37.08 160.76 37.08C160.17 37.08 159.67 36.94 159.25 36.65C158.82 36.37 158.47 35.95 158.19 35.41L157.27 35.41C157.46 36.18 157.88 36.81 158.53 37.28C159.19 37.76 159.9 38 160.68 38C161.19 38 161.69 37.89 162.19 37.69C162.68 37.49 163.1 37.21 163.45 36.83C163.79 36.46 164.02 36.06 164.13 35.63ZM166.73 28.22L165.84 28.22L165.84 35.25L166.78 35.25L166.78 31.55C166.78 31.17 166.8 30.84 166.85 30.57C166.89 30.3 166.99 30.05 167.15 29.84C167.35 29.56 167.59 29.35 167.9 29.2C168.2 29.05 168.52 28.98 168.86 28.98C169.63 28.98 170.22 29.28 170.65 29.88C170.78 30.06 170.89 30.27 170.95 30.51C171.02 30.74 171.05 31.08 171.05 31.55L171.05 35.25L172 35.25L172 31.55C172 31.03 171.96 30.62 171.88 30.31C171.78 29.91 171.61 29.55 171.36 29.23C171.05 28.85 170.68 28.56 170.25 28.36C169.82 28.16 169.37 28.06 168.89 28.06C168 28.06 167.28 28.45 166.73 29.23L166.73 28.22ZM155.69 28.22L154.74 28.22L154.74 35.25L155.69 35.25L155.69 28.22ZM134.32 29.76C134.85 29.24 135.49 28.98 136.24 28.98C136.99 28.98 137.65 29.24 138.19 29.76C138.74 30.29 139.01 30.93 139.01 31.69C139.01 32.46 138.74 33.12 138.2 33.67C137.66 34.21 137.01 34.49 136.26 34.49C135.49 34.49 134.84 34.21 134.31 33.67C133.78 33.12 133.52 32.46 133.52 31.69C133.52 30.93 133.78 30.29 134.32 29.76ZM146.64 29.63C147.14 30.06 147.46 30.59 147.58 31.21L142.22 31.21C142.34 30.56 142.66 30.03 143.16 29.61C143.67 29.19 144.26 28.98 144.92 28.98C145.56 28.98 146.14 29.19 146.64 29.63ZM158.71 33.67C158.21 33.12 157.96 32.45 157.96 31.66C157.96 30.93 158.21 30.3 158.71 29.77C159.21 29.24 159.83 28.98 160.55 28.98C161.34 28.98 162 29.24 162.53 29.76C163.07 30.28 163.34 30.94 163.34 31.73C163.34 32.08 163.27 32.43 163.12 32.79C162.98 33.14 162.78 33.45 162.55 33.69C162.28 33.98 161.99 34.18 161.68 34.3C161.38 34.43 161.03 34.49 160.64 34.49C159.86 34.49 159.21 34.21 158.71 33.67Z" fill="#FFFFFF" fill-opacity="1.000000" fill-rule="evenodd"/>
</svg>
