<svg width="50.000000" height="50.000000" viewBox="0 0 50 50" fill="none" xmlns="http://www.w3.org/2000/svg" xmlns:xlink="http://www.w3.org/1999/xlink">
	<desc>
			Created with Pixso.
	</desc>
	<defs/>
	<path id="path" d="M25 0C11.19 0 0 11.19 0 25C0 38.8 11.19 50 25 50C38.8 50 50 38.8 50 25C50 11.19 38.8 0 25 0ZM34.31 35.35C32.05 37.44 28.96 38.67 25.27 38.67C19.93 38.67 15.31 35.6 13.06 31.14C12.13 29.29 11.6 27.2 11.6 25C11.6 22.79 12.13 20.7 13.06 18.85C15.31 14.38 19.93 11.32 25.27 11.32C28.95 11.32 32.04 12.67 34.41 14.88L30.5 18.8C29.08 17.44 27.28 16.76 25.27 16.76C21.71 16.76 18.7 19.16 17.62 22.39C17.35 23.22 17.19 24.09 17.19 25C17.19 25.9 17.35 26.78 17.62 27.6C18.7 30.83 21.71 33.23 25.27 33.23C27.11 33.23 28.67 32.75 29.89 31.93C31.35 30.95 32.31 29.51 32.62 27.8L25.27 27.8L25.27 22.51L38.14 22.51C38.3 23.4 38.39 24.34 38.39 25.3C38.39 29.47 36.9 32.97 34.31 35.35Z" fill="#FFFFFF" fill-opacity="1.000000" fill-rule="nonzero"/>
</svg>
