<svg width="50.000000" height="50.000000" viewBox="0 0 50 50" fill="none" xmlns="http://www.w3.org/2000/svg" xmlns:xlink="http://www.w3.org/1999/xlink">
	<desc>
			Created with Pixso.
	</desc>
	<defs/>
	<path id="Форма 11" d="M50 25C50 38.8 38.8 50 25 50C11.19 50 0 38.8 0 25C0 11.19 11.19 0 25 0C38.8 0 50 11.19 50 25ZM34.53 14.81C34.53 14.81 28.9 17.12 27.23 17.84C22.9 19.65 10.4 24.78 10.4 24.78C7.44 25.93 9.17 27.02 9.17 27.02C9.17 27.02 11.7 27.88 13.87 28.54C16.04 29.19 17.19 28.46 17.19 28.46C17.19 28.46 22.25 25.14 27.38 21.6C30.99 19.14 30.13 21.17 29.26 22.03C27.38 23.91 24.27 26.87 21.67 29.26C20.52 30.27 21.09 31.14 21.6 31.57C23.48 33.16 28.61 36.41 28.9 36.63C29.26 36.92 31.28 38.22 32.51 37.93C33.74 37.64 33.88 35.98 33.88 35.98C33.88 35.98 34.82 30.05 35.69 24.63C36.27 20.8 36.84 17.26 36.92 16.25C37.13 13.8 34.53 14.81 34.53 14.81Z" fill="#FFFFFF" fill-opacity="1.000000" fill-rule="evenodd"/>
</svg>
