<svg width="21.020447" height="21.000000" viewBox="0 0 21.0204 21" fill="none" xmlns="http://www.w3.org/2000/svg" xmlns:xlink="http://www.w3.org/1999/xlink">
	<desc>
			Created with Pixso.
	</desc>
	<defs/>
	<path id="Форма 13 (Граница)" d="M8.74 0.73L0.74 8.73C-0.25 9.72 -0.25 11.27 0.74 12.26C1.73 13.25 3.28 13.25 4.27 12.26L8.01 8.53L8.01 18.5C8.01 19.9 9.11 21 10.51 21C11.91 21 13.01 19.9 13.01 18.5L13.01 8.53L16.74 12.26C17.73 13.25 19.28 13.25 20.27 12.26C21.26 11.27 21.26 9.72 20.27 8.73L12.27 0.73C11.78 0.24 11.2 0 10.51 0C9.81 0 9.23 0.24 8.74 0.73Z" fill="#FFFFFF" fill-opacity="1.000000" fill-rule="evenodd"/>
</svg>
