<svg width="50.000000" height="50.000000" viewBox="0 0 50 50" fill="none" xmlns="http://www.w3.org/2000/svg" xmlns:xlink="http://www.w3.org/1999/xlink">
	<desc>
			Created with Pixso.
	</desc>
	<defs/>
	<path id="Форма 13" d="M0 25C0 11.19 11.19 0 25 0C38.8 0 50 11.19 50 25C50 38.8 38.8 50 25 50C11.19 50 0 38.8 0 25Z" fill="#000000" fill-opacity="1.000000" fill-rule="evenodd"/>
	<path id="Форма 13" d="M10.5 12L14.92 12L20.27 19.53L20.27 12.03L29.22 12.03C31.2 12.03 32.98 12.4 34.57 13.15C36.17 13.89 37.46 14.87 38.45 16.1C39.43 17.33 40.19 18.71 40.71 20.24C41.23 21.78 41.5 23.37 41.5 25.03C41.5 26.69 41.23 28.28 40.71 29.81C40.19 31.33 39.43 32.71 38.45 33.95C37.46 35.18 36.17 36.17 34.57 36.9C32.98 37.63 31.2 38 29.22 38L20.27 38L20.27 29.93L14.92 38L10.5 38L19.52 24.77L10.5 12ZM23.87 34.24L29.22 34.24C31.96 34.24 34.09 33.33 35.63 31.51C37.16 29.69 37.93 27.53 37.93 25.03C37.93 22.53 37.16 20.36 35.63 18.53C34.09 16.7 31.96 15.78 29.22 15.78L23.87 15.78L23.87 24.77L23.87 34.24Z" fill="#FFFFFF" fill-opacity="1.000000" fill-rule="evenodd"/>
</svg>
